<?xml version="1.0" encoding="UTF-8" standalone="no"?>
<!-- Created with Inkscape (http://www.inkscape.org/) -->

<svg
   width="200mm"
   height="200mm"
   viewBox="0 0 193.6431 129.48418"
   version="1.1"
   id="svg1"
   xmlns="http://www.w3.org/2000/svg"
   xmlns:svg="http://www.w3.org/2000/svg">
  <defs
     id="defs1" />
  <g
     id="layer1"
     transform="translate(-4.7905502,-117.30519)">
    <g
       id="g9">
      <path
         id="path1"
         style="fill:#ff8225;fill-opacity:1;stroke-width:0.264583"
         d="m 71.838778,164.95871 a 40.915131,40.915131 0 0 0 -40.914817,40.91533 40.915131,40.915131 0 0 0 40.914817,40.91533 40.915131,40.915131 0 0 0 40.915332,-40.91533 40.915131,40.915131 0 0 0 -40.915332,-40.91533 z m 0,17.53537 a 23.380074,23.380074 0 0 1 23.37997,23.37996 23.380074,23.380074 0 0 1 -23.37997,23.37997 23.380074,23.380074 0 0 1 -23.37997,-23.37997 23.380074,23.380074 0 0 1 23.37997,-23.37996 z" />
      <path
         id="path1-5"
         style="fill:#ff8225;fill-opacity:1;stroke-width:0.165364"
         d="M 30.362291,117.30519 A 25.571936,25.571936 0 0 0 4.7905502,142.87725 25.571936,25.571936 0 0 0 30.362291,168.44931 25.571936,25.571936 0 0 0 55.934352,142.87725 25.571936,25.571936 0 0 0 30.362291,117.30519 Z m 0,10.95959 A 14.612534,14.612534 0 0 1 44.97476,142.87725 14.612534,14.612534 0 0 1 30.362291,157.48972 14.612534,14.612534 0 0 1 15.749822,142.87725 14.612534,14.612534 0 0 1 30.362291,128.26478 Z" />
      <path
         id="path1-5-2"
         style="fill:#ff8225;fill-opacity:1;stroke-width:0.264583"
         d="m 157.51832,164.95871 a 40.915131,40.915131 0 0 0 -40.91482,40.91533 40.915131,40.915131 0 0 0 40.91482,40.91533 40.915131,40.915131 0 0 0 40.91532,-40.91533 40.915131,40.915131 0 0 0 -40.91532,-40.91533 z m 0,17.53536 a 23.380074,23.380074 0 0 1 23.37997,23.37997 23.380074,23.380074 0 0 1 -23.37997,23.37997 23.380074,23.380074 0 0 1 -23.37997,-23.37997 23.380074,23.380074 0 0 1 23.37997,-23.37997 z" />
    </g>
  </g>
</svg>
