<?xml version="1.0" encoding="UTF-8" standalone="no"?>
<!-- Created with Inkscape (http://www.inkscape.org/) -->

<svg
   width="453.96008mm"
   height="160.42159mm"
   viewBox="0 0 146.5104 103.86029"
   version="1.1"
   id="svg1"
   xmlns:xlink="http://www.w3.org/1999/xlink"
   xmlns="http://www.w3.org/2000/svg"
   xmlns:svg="http://www.w3.org/2000/svg">
  <defs
     id="defs1">
    <linearGradient
       id="linearGradient11">
      <stop
         style="stop-color:#173b45;stop-opacity:1;"
         offset="0"
         id="stop11" />
      <stop
         style="stop-color:#173b45;stop-opacity:0;"
         offset="1"
         id="stop12" />
    </linearGradient>
    <rect
       x="119.11001"
       y="394.42987"
       width="1778.8396"
       height="367.09314"
       id="rect9" />
    <linearGradient
       xlink:href="#linearGradient11"
       id="linearGradient12"
       x1="122.86738"
       y1="506.03461"
       x2="730.63263"
       y2="506.03461"
       gradientUnits="userSpaceOnUse" />
  </defs>
  <g
     id="layer1"
     transform="translate(-40.839284,-128.67747)">
    <g
       id="g17"
       transform="translate(5.2083345)">
      <path
         style="font-size:192px;font-family:'Times New Roman';-inkscape-font-specification:'Times New Roman, ';white-space:pre;fill:#f8eded;fill-opacity:1;stroke:none;stroke-width:0.856483;stroke-linecap:round"
         d="m 121.94146,169.97905 h 16.46175 l 37.08367,45.49347 v -34.98121 q 0,-5.59163 -1.25253,-6.97835 -1.65512,-1.87879 -5.23376,-1.87879 h -2.10245 v -1.65512 h 21.11398 v 1.65512 h -2.14719 q -3.84704,0 -5.45742,2.32612 -0.98413,1.43146 -0.98413,6.53102 v 51.12983 h -1.61039 l -39.99131,-48.84845 v 37.35206 q 0,5.59163 1.20779,6.97835 1.69986,1.87879 5.23377,1.87879 h 2.14718 v 1.65512 h -21.11398 v -1.65512 h 2.10245 q 3.89177,0 5.50216,-2.32612 0.98413,-1.43145 0.98413,-6.53102 v -42.18322 q -2.63925,-3.08658 -4.02597,-4.07071 -1.34199,-0.98412 -3.98124,-1.83405 -1.29726,-0.4026 -3.93651,-0.4026 z"
         id="path16" />
      <path
         style="font-size:192px;font-family:'Times New Roman';-inkscape-font-specification:'Times New Roman, ';white-space:pre;fill:#f8eded;fill-opacity:1;stroke:none;stroke-width:0.856483;stroke-linecap:round"
         d="M 123.95445,230.63701 H 107.76122 L 87.228861,202.27628 q -2.281383,0.0895 -3.712839,0.0895 -0.581529,0 -1.252525,0 -0.670995,-0.0447 -1.386723,-0.0895 v 17.62481 q 0,5.72582 1.252524,7.11255 1.699855,1.96825 5.099563,1.96825 h 2.37085 v 1.65512 H 63.609833 v -1.65512 h 2.281383 q 3.847039,0 5.50216,-2.50505 0.939394,-1.38672 0.939394,-6.57575 v -39.18612 q 0,-5.72582 -1.252525,-7.11255 -1.744587,-1.96825 -5.189029,-1.96825 h -2.281383 v -1.65512 h 22.098106 q 9.66233,0 14.225097,1.43146 4.607444,1.38672 7.783454,5.18903 3.22074,3.75757 3.22074,8.99133 0,5.59163 -3.66807,9.70706 -3.62333,4.11544 -11.272629,5.81529 l 12.525149,17.40115 q 4.29431,5.99422 7.38086,7.96247 3.08655,1.96825 8.05191,2.50505 z M 80.876774,199.4581 q 0.849927,0 1.476189,0.0447 0.626263,0 1.02886,0 8.678203,0 13.062038,-3.75757 4.428559,-3.75757 4.428559,-9.57286 0,-5.6811 -3.578632,-9.215 -3.533907,-3.57864 -9.393932,-3.57864 -2.594514,0 -7.023082,0.84992 z"
         id="path15" />
      <path
         style="font-size:192px;font-family:'Times New Roman';-inkscape-font-specification:'Times New Roman, ';white-space:pre;fill:#f8eded;fill-opacity:1;stroke:none;stroke-width:0.856483;stroke-linecap:round"
         d="m -30.642616,171.63417 v -1.65512 h 25.9898716 v 1.65512 H -6.844659 q -3.712836,0 -5.41269,2.19192 -1.073593,1.43146 -1.073593,6.88888 v 29.65799 q 0,6.84415 -1.520922,11.09378 -1.476189,4.24964 -5.144296,7.42568 -3.668107,3.13131 -8.857136,3.13131 -4.204902,0 -6.620485,-2.05771 -2.415577,-2.10246 -2.415577,-4.78644 0,-2.19191 1.118325,-3.31024 1.476184,-1.38672 3.444437,-1.38672 1.431456,0 2.549781,0.93939 1.163058,0.93939 2.907646,5.0101 1.028859,2.41558 2.639247,2.41558 1.207791,0 2.236651,-1.47619 1.073592,-1.47619 1.073592,-5.23376 v -41.42277 q 0,-4.6075 -0.581529,-6.08369 -0.44733,-1.11832 -1.878787,-1.92352 -1.923519,-1.07359 -4.070703,-1.07359 z"
         id="text9" />
      <path
         id="path1"
         style="fill:#ff8225;fill-opacity:1;stroke-width:0.212672"
         d="M 28.460466,166.76214 A 32.887647,32.887647 0 0 0 -4.4269348,199.64995 32.887647,32.887647 0 0 0 28.460466,232.53776 32.887647,32.887647 0 0 0 61.348275,199.64995 32.887647,32.887647 0 0 0 28.460466,166.76214 Z m 0,14.09496 A 18.79294,18.79294 0 0 1 47.253323,199.64995 18.79294,18.79294 0 0 1 28.460466,218.44281 18.79294,18.79294 0 0 1 9.6675878,199.64995 18.79294,18.79294 0 0 1 28.460466,180.8571 Z" />
      <path
         id="path1-1"
         style="fill:#ff8225;fill-opacity:1;stroke-width:0.212672"
         d="m 222.94985,166.76214 a 32.887647,32.887647 0 0 0 -32.88739,32.88781 32.887647,32.887647 0 0 0 32.88739,32.88781 32.887647,32.887647 0 0 0 32.88781,-32.88781 32.887647,32.887647 0 0 0 -32.88781,-32.88781 z m 0,14.09496 a 18.79294,18.79294 0 0 1 18.79286,18.79285 18.79294,18.79294 0 0 1 -18.79286,18.79286 18.79294,18.79294 0 0 1 -18.79286,-18.79286 18.79294,18.79294 0 0 1 18.79286,-18.79285 z" />
      <path
         id="path1-5"
         style="fill:#ff8225;fill-opacity:1;stroke-width:0.130757"
         d="m -17.845235,128.67747 a 20.22028,20.22028 0 0 0 -20.220125,20.22038 20.22028,20.22028 0 0 0 20.220125,20.22038 20.22028,20.22028 0 0 0 20.220364,-20.22038 20.22028,20.22028 0 0 0 -20.220364,-20.22038 z m 0,8.66599 a 11.554445,11.554445 0 0 1 11.5543896,11.55439 11.554445,11.554445 0 0 1 -11.5543896,11.55439 11.554445,11.554445 0 0 1 -11.554393,-11.55439 11.554445,11.554445 0 0 1 11.554393,-11.55439 z" />
    </g>
  </g>
</svg>
